<?xml version="1.0" encoding="UTF-8"?><svg width="200" height="200" viewBox="0 0 48 48" version="1.1" xmlns="http://www.w3.org/2000/svg" xmlns:xlink="http://www.w3.org/1999/xlink" xml:space="preserve" xmlns:serif="http://www.serif.com/" style="fill-rule:evenodd;clip-rule:evenodd;stroke-linejoin:round;stroke-miterlimit:2;"><g id="White"><path d="M39.184,0.4l-30.368,0c-0.79,0 -1.435,0.692 -1.435,1.539l0,44.122c0,0.849 0.645,1.539 1.435,1.539l30.368,0c0.79,0 1.435,-0.69 1.435,-1.539l0,-44.122c0,-0.847 -0.645,-1.539 -1.435,-1.539" style="fill:#050200;fill-rule:nonzero;"/><path d="M8.816,0.801c-0.57,0 -1.034,0.51 -1.034,1.138l0,44.122c0,0.628 0.464,1.139 1.034,1.139l30.368,0c0.571,0 1.034,-0.511 1.034,-1.139l0,-44.122c0,-0.628 -0.463,-1.138 -1.034,-1.138l-30.368,0Zm30.368,47.199l-30.368,0c-1.012,0 -1.834,-0.87 -1.834,-1.939l0,-44.122c0,-1.069 0.822,-1.939 1.834,-1.939l30.368,0c1.012,0 1.834,0.87 1.834,1.939l0,44.122c0,1.069 -0.822,1.939 -1.834,1.939" style="fill:#fff;fill-rule:nonzero;"/><rect x="18.771" y="18.387" width="10.969" height="18.364" style="fill:#fff;"/><path d="M30.571,18.514l-0.361,0l0,-0.129l0.875,0l0,0.129l-0.359,0l0,1.052l-0.155,0l0,-1.052Z" style="fill:#fff;fill-rule:nonzero;"/><path d="M32.215,19.048c-0.008,-0.166 -0.02,-0.365 -0.02,-0.513l-0.003,0c-0.042,0.141 -0.09,0.287 -0.149,0.451l-0.208,0.573l-0.116,0l-0.193,-0.563c-0.058,-0.167 -0.103,-0.317 -0.136,-0.461l-0.003,0c-0.004,0.148 -0.013,0.345 -0.024,0.525l-0.031,0.506l-0.146,0l0.082,-1.181l0.197,0l0.202,0.57c0.049,0.146 0.087,0.277 0.117,0.399l0.005,0c0.031,-0.12 0.073,-0.251 0.126,-0.399l0.211,-0.57l0.195,0l0.075,1.181l-0.151,0l-0.03,-0.518Z" style="fill:#fff;fill-rule:nonzero;"/><path d="M8.874,10.812l1.484,0l0,6.323l2.107,0l0,-6.323l1.484,0l0,-2.108l-5.075,0l0,2.108Z" style="fill:#fff;fill-rule:nonzero;"/><path d="M19.92,10.812l1.484,0l0,6.323l2.108,0l0,-6.323l1.483,0l0,-2.108l-5.075,0l0,2.108Z" style="fill:#fff;fill-rule:nonzero;"/><path d="M16.844,15.027l-0.047,-0.001c-0.169,0 -0.29,-0.138 -0.293,-0.288l0,-0.995l1.202,0l1.271,-2.108l-2.472,0l0,-0.823l2.967,0l0,-2.108l-5.075,0l0,6.568c0.02,0.255 0.051,0.494 0.154,0.733c0.102,0.238 0.253,0.455 0.443,0.632c0.232,0.218 0.519,0.372 0.829,0.444c0.143,0.034 0.289,0.05 0.437,0.051c0.06,0 0.197,0.003 0.197,0.003l4.499,-0.001l-1.272,-2.108l-2.84,0.001Z" style="fill:#fff;fill-rule:nonzero;"/><rect x="31.503" y="8.704" width="2.108" height="8.431" style="fill:#fff;"/><path d="M36.653,11.404c-0.269,-0.356 -0.03,-0.592 0.154,-0.592l1.037,0l1.272,-2.109l-3.269,0c-1.034,0 -1.872,0.839 -1.872,1.872c0,0.386 0.102,0.765 0.295,1.099c0.01,0.017 0.02,0.034 0.033,0.05l2.182,2.879c0.115,0.195 -0.025,0.423 -0.252,0.423l-2.173,0l0,2.108l3.119,0c1.439,0 2.372,-1.638 1.637,-2.875l-2.163,-2.855Z" style="fill:#fff;fill-rule:nonzero;"/><path d="M28.261,11.255l-0.71,0.941l0,-1.383l0.458,0c0.228,0 0.368,0.247 0.252,0.442m2.794,3.03l-1.1,-1.823c0,0 0.582,-0.77 0.592,-0.788c0.192,-0.333 0.294,-0.712 0.294,-1.098l0,0c0,-1.034 -0.838,-1.872 -1.871,-1.872l-3.527,0l0,8.431l2.108,0l0,-4.572l2.781,4.572l0.723,0l0,-2.85Z" style="fill:#fff;fill-rule:nonzero;"/><path d="M10.768,40.379c0.336,0.005 0.582,-0.064 0.738,-0.205c0.155,-0.141 0.233,-0.344 0.233,-0.61c0,-0.265 -0.078,-0.467 -0.233,-0.607c-0.156,-0.139 -0.402,-0.208 -0.738,-0.208l-1.157,0l0,1.63l1.157,0Zm0.199,-2.128c0.448,0 0.787,0.115 1.018,0.346c0.23,0.23 0.345,0.552 0.345,0.967c0,0.415 -0.115,0.739 -0.345,0.971c-0.231,0.232 -0.57,0.347 -1.018,0.342l-1.356,0l0,1.818l-0.592,0l0,-4.444l1.948,0Z" style="fill:#fff;fill-rule:nonzero;"/><path d="M15.267,40.267c0.125,-0.02 0.234,-0.061 0.327,-0.121c0.093,-0.06 0.168,-0.141 0.224,-0.243c0.056,-0.101 0.084,-0.233 0.084,-0.395c0,-0.224 -0.062,-0.406 -0.187,-0.547c-0.124,-0.141 -0.326,-0.212 -0.603,-0.212l-1.469,0l0,1.55l1.232,0c0.137,0 0.268,-0.01 0.392,-0.032m-0.124,-2.016c0.423,0 0.754,0.104 0.993,0.311c0.238,0.208 0.357,0.492 0.357,0.853c0,0.27 -0.061,0.506 -0.183,0.709c-0.123,0.203 -0.319,0.343 -0.588,0.417l0,0.013c0.128,0.025 0.233,0.066 0.314,0.124c0.081,0.058 0.145,0.128 0.193,0.209c0.048,0.08 0.083,0.171 0.106,0.27c0.023,0.1 0.04,0.204 0.053,0.312c0.008,0.108 0.014,0.217 0.018,0.33c0.004,0.111 0.015,0.221 0.031,0.329c0.017,0.108 0.041,0.211 0.072,0.308c0.031,0.098 0.078,0.184 0.14,0.259l-0.66,0c-0.041,-0.046 -0.069,-0.109 -0.084,-0.187c-0.015,-0.079 -0.024,-0.167 -0.028,-0.265c-0.004,-0.097 -0.008,-0.202 -0.012,-0.314c-0.004,-0.112 -0.017,-0.222 -0.038,-0.33c-0.016,-0.108 -0.037,-0.21 -0.062,-0.308c-0.025,-0.097 -0.064,-0.183 -0.118,-0.255c-0.054,-0.072 -0.125,-0.131 -0.212,-0.174c-0.087,-0.044 -0.203,-0.066 -0.348,-0.066l-1.444,0l0,1.899l-0.591,0l0,-4.444l2.091,0Z" style="fill:#fff;fill-rule:nonzero;"/><path d="M17.869,41.136c0.058,0.217 0.149,0.414 0.274,0.588c0.124,0.174 0.284,0.314 0.479,0.42c0.195,0.105 0.427,0.159 0.697,0.159c0.27,0 0.502,-0.054 0.697,-0.159c0.194,-0.106 0.354,-0.246 0.479,-0.42c0.124,-0.174 0.216,-0.371 0.274,-0.588c0.058,-0.218 0.087,-0.439 0.087,-0.663c0,-0.225 -0.029,-0.445 -0.087,-0.663c-0.058,-0.218 -0.15,-0.414 -0.274,-0.588c-0.125,-0.174 -0.285,-0.314 -0.479,-0.42c-0.195,-0.106 -0.427,-0.159 -0.697,-0.159c-0.27,0 -0.502,0.053 -0.697,0.159c-0.195,0.106 -0.355,0.246 -0.479,0.42c-0.125,0.174 -0.216,0.37 -0.274,0.588c-0.058,0.218 -0.087,0.438 -0.087,0.663c0,0.224 0.029,0.445 0.087,0.663m-0.545,-1.538c0.089,-0.279 0.223,-0.528 0.401,-0.743c0.179,-0.216 0.401,-0.388 0.666,-0.517c0.266,-0.128 0.575,-0.193 0.928,-0.193c0.352,0 0.662,0.065 0.927,0.193c0.266,0.129 0.488,0.301 0.666,0.517c0.178,0.215 0.312,0.464 0.402,0.743c0.089,0.28 0.133,0.572 0.133,0.875c0,0.303 -0.044,0.594 -0.133,0.874c-0.09,0.28 -0.224,0.528 -0.402,0.744c-0.178,0.216 -0.4,0.387 -0.666,0.513c-0.265,0.127 -0.575,0.19 -0.927,0.19c-0.353,0 -0.662,-0.063 -0.928,-0.19c-0.265,-0.126 -0.487,-0.297 -0.666,-0.513c-0.178,-0.216 -0.312,-0.464 -0.401,-0.744c-0.089,-0.28 -0.134,-0.571 -0.134,-0.874c0,-0.303 0.045,-0.595 0.134,-0.875" style="fill:#fff;fill-rule:nonzero;"/><path d="M23.868,42.197c0.067,0 0.149,-0.005 0.249,-0.016c0.099,-0.01 0.205,-0.035 0.317,-0.074c0.112,-0.04 0.223,-0.097 0.333,-0.172c0.11,-0.075 0.209,-0.176 0.296,-0.305c0.087,-0.128 0.159,-0.289 0.215,-0.482c0.056,-0.193 0.084,-0.426 0.084,-0.7c0,-0.266 -0.026,-0.503 -0.078,-0.712c-0.052,-0.21 -0.137,-0.389 -0.255,-0.536c-0.119,-0.147 -0.271,-0.259 -0.458,-0.336c-0.186,-0.076 -0.417,-0.115 -0.691,-0.115l-0.995,0l0,3.448l0.983,0Zm-0.05,-3.946c0.685,0 1.211,0.174 1.581,0.523c0.369,0.349 0.553,0.88 0.553,1.593c0,0.374 -0.041,0.704 -0.124,0.993c-0.083,0.288 -0.211,0.531 -0.386,0.728c-0.174,0.197 -0.396,0.347 -0.665,0.451c-0.27,0.104 -0.59,0.155 -0.959,0.155l-1.525,0l0,-4.443l1.525,0Z" style="fill:#fff;fill-rule:nonzero;"/><path d="M29.892,42.368c-0.303,0.284 -0.734,0.426 -1.295,0.426c-0.572,0 -1.019,-0.135 -1.34,-0.407c-0.322,-0.272 -0.483,-0.705 -0.483,-1.298l0,-2.838l0.592,0l0,2.838c0,0.398 0.105,0.7 0.317,0.906c0.211,0.205 0.516,0.308 0.914,0.308c0.378,0 0.665,-0.103 0.863,-0.308c0.196,-0.206 0.295,-0.508 0.295,-0.906l0,-2.838l0.591,0l0,2.838c0,0.568 -0.151,0.995 -0.454,1.279" style="fill:#fff;fill-rule:nonzero;"/><path d="M34.102,38.88c-0.226,-0.158 -0.495,-0.237 -0.806,-0.237c-0.265,0 -0.493,0.05 -0.681,0.15c-0.189,0.099 -0.345,0.233 -0.467,0.401c-0.122,0.168 -0.213,0.36 -0.271,0.576c-0.058,0.215 -0.087,0.439 -0.087,0.672c0,0.253 0.029,0.492 0.087,0.719c0.058,0.226 0.149,0.423 0.271,0.591c0.122,0.168 0.279,0.302 0.469,0.401c0.191,0.1 0.42,0.15 0.686,0.15c0.194,0 0.367,-0.033 0.519,-0.097c0.151,-0.064 0.282,-0.154 0.392,-0.268c0.11,-0.113 0.196,-0.25 0.258,-0.407c0.062,-0.158 0.1,-0.328 0.112,-0.51l0.592,0c-0.059,0.559 -0.251,0.995 -0.579,1.306c-0.328,0.312 -0.776,0.467 -1.345,0.467c-0.344,0 -0.645,-0.059 -0.902,-0.177c-0.257,-0.118 -0.471,-0.281 -0.641,-0.489c-0.17,-0.207 -0.298,-0.452 -0.383,-0.734c-0.085,-0.282 -0.127,-0.585 -0.127,-0.909c0,-0.323 0.046,-0.627 0.137,-0.911c0.091,-0.285 0.225,-0.533 0.401,-0.744c0.177,-0.211 0.396,-0.379 0.66,-0.501c0.263,-0.122 0.565,-0.183 0.906,-0.183c0.232,0 0.452,0.03 0.659,0.093c0.208,0.062 0.392,0.153 0.554,0.274c0.162,0.12 0.297,0.27 0.405,0.451c0.107,0.18 0.178,0.389 0.211,0.625l-0.591,0c-0.067,-0.315 -0.213,-0.552 -0.439,-0.709" style="fill:#fff;fill-rule:nonzero;"/><path d="M35.561,38.749l0,-0.498l3.554,0l0,0.498l-1.481,0l0,3.946l-0.592,0l0,-3.946l-1.481,0Z" style="fill:#fff;fill-rule:nonzero;"/><path d="M10.949,45.908l-0.503,-1.849l-0.006,0l-0.508,1.849l-0.305,0l-0.564,-2.2l0.299,0l0.431,1.83l0.006,0l0.493,-1.83l0.318,0l0.486,1.83l0.006,0l0.447,-1.83l0.292,0l-0.587,2.2l-0.305,0Z" style="fill:#fff;fill-rule:nonzero;"/><path d="M14.109,45.908l-0.502,-1.849l-0.007,0l-0.508,1.849l-0.305,0l-0.563,-2.2l0.298,0l0.431,1.83l0.007,0l0.493,-1.83l0.317,0l0.487,1.83l0.006,0l0.446,-1.83l0.293,0l-0.588,2.2l-0.305,0Z" style="fill:#fff;fill-rule:nonzero;"/><path d="M17.269,45.908l-0.502,-1.849l-0.006,0l-0.508,1.849l-0.305,0l-0.564,-2.2l0.299,0l0.431,1.83l0.006,0l0.493,-1.83l0.317,0l0.487,1.83l0.006,0l0.447,-1.83l0.292,0l-0.588,2.2l-0.305,0Z" style="fill:#fff;fill-rule:nonzero;"/><rect x="18.535" y="45.566" width="0.342" height="0.342" style="fill:#fff;"/><path d="M19.203,43.955l0,-0.247l1.759,0l0,0.247l-0.733,0l0,1.953l-0.293,0l0,-1.953l-0.733,0Z" style="fill:#fff;fill-rule:nonzero;"/><path d="M22.786,43.708l0,0.246l-1.226,0l0,0.7l1.143,0l0,0.246l-1.143,0l0,0.761l1.235,0l0,0.247l-1.528,0l0,-2.2l1.519,0Z" style="fill:#fff;fill-rule:nonzero;"/><path d="M23.1,43.955l0,-0.247l1.759,0l0,0.247l-0.733,0l0,1.953l-0.293,0l0,-1.953l-0.733,0Z" style="fill:#fff;fill-rule:nonzero;"/><path d="M26.322,44.706c0.062,-0.01 0.116,-0.03 0.162,-0.06c0.046,-0.03 0.083,-0.07 0.111,-0.12c0.027,-0.05 0.041,-0.115 0.041,-0.196c0,-0.111 -0.031,-0.201 -0.092,-0.271c-0.062,-0.069 -0.162,-0.104 -0.299,-0.104l-0.727,0l0,0.767l0.61,0c0.068,0 0.132,-0.006 0.194,-0.016m-0.062,-0.998c0.21,0 0.373,0.052 0.492,0.154c0.118,0.103 0.176,0.244 0.176,0.422c0,0.134 -0.03,0.251 -0.09,0.352c-0.061,0.1 -0.158,0.169 -0.291,0.206l0,0.006c0.063,0.012 0.115,0.033 0.155,0.061c0.04,0.029 0.072,0.063 0.096,0.103c0.023,0.041 0.041,0.085 0.052,0.135c0.012,0.049 0.02,0.1 0.026,0.154c0.004,0.053 0.007,0.108 0.009,0.163c0.003,0.055 0.008,0.11 0.016,0.163c0.008,0.054 0.02,0.105 0.035,0.153c0.016,0.048 0.039,0.091 0.07,0.128l-0.327,0c-0.02,-0.023 -0.034,-0.054 -0.041,-0.093c-0.008,-0.039 -0.012,-0.082 -0.014,-0.131c-0.002,-0.048 -0.004,-0.1 -0.006,-0.155c-0.003,-0.056 -0.008,-0.11 -0.019,-0.164c-0.008,-0.053 -0.018,-0.104 -0.031,-0.152c-0.012,-0.048 -0.032,-0.09 -0.058,-0.126c-0.027,-0.036 -0.062,-0.065 -0.105,-0.087c-0.043,-0.021 -0.101,-0.032 -0.172,-0.032l-0.715,0l0,0.94l-0.293,0l0,-2.2l1.035,0Z" style="fill:#fff;fill-rule:nonzero;"/><rect x="27.471" y="43.708" width="0.292" height="2.199" style="fill:#fff;"/><path d="M29.542,44.008c-0.097,-0.07 -0.222,-0.106 -0.374,-0.106c-0.061,0 -0.122,0.006 -0.182,0.019c-0.059,0.012 -0.112,0.032 -0.158,0.061c-0.046,0.029 -0.083,0.067 -0.111,0.116c-0.028,0.048 -0.042,0.108 -0.042,0.18c0,0.068 0.02,0.123 0.06,0.165c0.04,0.042 0.094,0.076 0.16,0.103c0.067,0.027 0.143,0.049 0.227,0.066c0.084,0.018 0.17,0.037 0.257,0.057c0.088,0.021 0.173,0.045 0.257,0.072c0.085,0.029 0.16,0.066 0.227,0.113c0.067,0.047 0.12,0.107 0.16,0.179c0.04,0.072 0.06,0.162 0.06,0.271c0,0.117 -0.026,0.217 -0.078,0.3c-0.053,0.083 -0.12,0.151 -0.203,0.203c-0.081,0.053 -0.173,0.091 -0.275,0.114c-0.102,0.024 -0.203,0.036 -0.303,0.036c-0.124,0 -0.24,-0.016 -0.35,-0.047c-0.11,-0.03 -0.206,-0.077 -0.289,-0.139c-0.084,-0.063 -0.15,-0.143 -0.198,-0.241c-0.048,-0.098 -0.072,-0.213 -0.072,-0.346l0.277,0c0,0.092 0.018,0.172 0.054,0.238c0.036,0.067 0.083,0.122 0.142,0.165c0.058,0.044 0.127,0.075 0.205,0.096c0.077,0.02 0.158,0.031 0.24,0.031c0.066,0 0.132,-0.006 0.199,-0.019c0.066,-0.012 0.126,-0.033 0.18,-0.063c0.053,-0.03 0.096,-0.07 0.129,-0.122c0.033,-0.051 0.049,-0.117 0.049,-0.197c0,-0.076 -0.02,-0.137 -0.06,-0.185c-0.04,-0.047 -0.093,-0.086 -0.16,-0.115c-0.067,-0.03 -0.142,-0.054 -0.226,-0.072c-0.085,-0.019 -0.171,-0.038 -0.257,-0.058c-0.087,-0.019 -0.173,-0.042 -0.258,-0.067c-0.084,-0.026 -0.159,-0.06 -0.226,-0.102c-0.067,-0.042 -0.12,-0.097 -0.16,-0.164c-0.04,-0.066 -0.06,-0.15 -0.06,-0.25c0,-0.111 0.022,-0.207 0.067,-0.288c0.046,-0.081 0.106,-0.148 0.181,-0.201c0.075,-0.052 0.16,-0.091 0.255,-0.117c0.096,-0.025 0.194,-0.038 0.295,-0.038c0.112,0 0.217,0.013 0.314,0.04c0.096,0.026 0.181,0.069 0.254,0.126c0.073,0.058 0.13,0.13 0.172,0.217c0.042,0.087 0.065,0.192 0.069,0.313l-0.277,0c-0.016,-0.158 -0.073,-0.273 -0.171,-0.344" style="fill:#fff;fill-rule:nonzero;"/><rect x="30.576" y="45.566" width="0.342" height="0.342" style="fill:#fff;"/><path d="M32.807,44.019c-0.112,-0.078 -0.244,-0.117 -0.399,-0.117c-0.131,0 -0.244,0.025 -0.337,0.074c-0.093,0.049 -0.17,0.115 -0.231,0.199c-0.061,0.083 -0.105,0.178 -0.134,0.285c-0.029,0.106 -0.043,0.217 -0.043,0.332c0,0.126 0.014,0.244 0.043,0.356c0.029,0.112 0.073,0.21 0.134,0.293c0.061,0.083 0.139,0.149 0.233,0.199c0.094,0.049 0.207,0.073 0.339,0.073c0.096,0 0.182,-0.016 0.257,-0.047c0.075,-0.032 0.139,-0.076 0.194,-0.133c0.054,-0.056 0.097,-0.123 0.128,-0.201c0.03,-0.079 0.049,-0.163 0.055,-0.253l0.293,0c-0.029,0.277 -0.125,0.493 -0.287,0.647c-0.162,0.154 -0.384,0.231 -0.665,0.231c-0.17,0 -0.319,-0.029 -0.447,-0.088c-0.127,-0.058 -0.233,-0.139 -0.317,-0.242c-0.084,-0.102 -0.147,-0.223 -0.19,-0.363c-0.042,-0.14 -0.063,-0.29 -0.063,-0.45c0,-0.16 0.023,-0.311 0.068,-0.451c0.045,-0.141 0.112,-0.264 0.199,-0.368c0.087,-0.105 0.196,-0.188 0.326,-0.248c0.131,-0.061 0.28,-0.091 0.449,-0.091c0.115,0 0.223,0.015 0.326,0.046c0.103,0.031 0.194,0.076 0.274,0.136c0.081,0.059 0.147,0.133 0.201,0.223c0.053,0.089 0.088,0.192 0.104,0.31l-0.292,0c-0.034,-0.157 -0.106,-0.274 -0.218,-0.352" style="fill:#fff;fill-rule:nonzero;"/><path d="M34.038,45.136c0.029,0.108 0.074,0.205 0.135,0.291c0.062,0.086 0.141,0.156 0.238,0.208c0.096,0.052 0.211,0.078 0.344,0.078c0.134,0 0.249,-0.026 0.346,-0.078c0.096,-0.052 0.175,-0.122 0.237,-0.208c0.061,-0.086 0.107,-0.183 0.135,-0.291c0.029,-0.108 0.044,-0.217 0.044,-0.328c0,-0.111 -0.015,-0.22 -0.044,-0.328c-0.028,-0.108 -0.074,-0.205 -0.135,-0.291c-0.062,-0.087 -0.141,-0.156 -0.237,-0.208c-0.097,-0.053 -0.212,-0.079 -0.346,-0.079c-0.133,0 -0.248,0.026 -0.344,0.079c-0.097,0.052 -0.176,0.121 -0.238,0.208c-0.061,0.086 -0.106,0.183 -0.135,0.291c-0.029,0.108 -0.043,0.217 -0.043,0.328c0,0.111 0.014,0.22 0.043,0.328m-0.27,-0.761c0.045,-0.139 0.111,-0.261 0.199,-0.368c0.089,-0.106 0.198,-0.192 0.33,-0.256c0.131,-0.063 0.284,-0.095 0.458,-0.095c0.175,0 0.328,0.032 0.46,0.095c0.131,0.064 0.241,0.15 0.329,0.256c0.089,0.107 0.155,0.229 0.199,0.368c0.044,0.139 0.066,0.283 0.066,0.433c0,0.15 -0.022,0.294 -0.066,0.433c-0.044,0.138 -0.11,0.261 -0.199,0.368c-0.088,0.107 -0.198,0.191 -0.329,0.254c-0.132,0.063 -0.285,0.094 -0.46,0.094c-0.174,0 -0.327,-0.031 -0.458,-0.094c-0.132,-0.063 -0.241,-0.147 -0.33,-0.254c-0.088,-0.107 -0.154,-0.23 -0.199,-0.368c-0.044,-0.139 -0.066,-0.283 -0.066,-0.433c0,-0.15 0.022,-0.294 0.066,-0.433" style="fill:#fff;fill-rule:nonzero;"/><path d="M36.696,43.708l0.693,1.848l0.696,-1.848l0.401,0l0,2.2l-0.277,0l0,-1.83l-0.007,0l-0.686,1.83l-0.25,0l-0.687,-1.83l-0.006,0l0,1.83l-0.277,0l0,-2.2l0.4,0Z" style="fill:#fff;fill-rule:nonzero;"/><path d="M9.591,5.865c0.064,0.24 0.165,0.456 0.302,0.649c0.138,0.192 0.314,0.347 0.529,0.464c0.215,0.116 0.472,0.175 0.77,0.175c0.297,0 0.553,-0.059 0.768,-0.175c0.216,-0.117 0.392,-0.272 0.529,-0.464c0.138,-0.193 0.238,-0.409 0.303,-0.649c0.063,-0.24 0.096,-0.484 0.096,-0.732c0,-0.247 -0.033,-0.491 -0.096,-0.731c-0.065,-0.24 -0.165,-0.456 -0.303,-0.649c-0.137,-0.192 -0.313,-0.347 -0.529,-0.464c-0.215,-0.116 -0.471,-0.175 -0.768,-0.175c-0.298,0 -0.555,0.059 -0.77,0.175c-0.215,0.117 -0.391,0.272 -0.529,0.464c-0.137,0.193 -0.238,0.409 -0.302,0.649c-0.064,0.24 -0.096,0.484 -0.096,0.731c0,0.248 0.032,0.492 0.096,0.732m-0.601,-1.697c0.099,-0.309 0.246,-0.582 0.443,-0.82c0.198,-0.238 0.442,-0.428 0.735,-0.57c0.293,-0.142 0.634,-0.213 1.024,-0.213c0.389,0 0.73,0.071 1.023,0.213c0.292,0.142 0.538,0.332 0.735,0.57c0.197,0.238 0.344,0.511 0.443,0.82c0.098,0.309 0.147,0.631 0.147,0.965c0,0.335 -0.049,0.656 -0.147,0.966c-0.099,0.308 -0.246,0.582 -0.443,0.82c-0.197,0.238 -0.443,0.427 -0.735,0.567c-0.293,0.139 -0.634,0.209 -1.023,0.209c-0.39,0 -0.731,-0.07 -1.024,-0.209c-0.293,-0.14 -0.537,-0.329 -0.735,-0.567c-0.197,-0.238 -0.344,-0.512 -0.443,-0.82c-0.098,-0.31 -0.147,-0.631 -0.147,-0.966c0,-0.334 0.049,-0.656 0.147,-0.965" style="fill:#fff;fill-rule:nonzero;"/><path d="M17.558,2.682l0,0.549l-2.569,0l0,1.559l2.253,0l0,0.549l-2.253,0l0,2.246l-0.652,0l0,-4.903l3.221,0Z" style="fill:#fff;fill-rule:nonzero;"/><path d="M21.5,2.682l0,0.549l-2.569,0l0,1.559l2.253,0l0,0.549l-2.253,0l0,2.246l-0.652,0l0,-4.903l3.221,0Z" style="fill:#fff;fill-rule:nonzero;"/><rect x="22.386" y="2.682" width="0.653" height="4.904" style="fill:#fff;"/><path d="M27.101,3.375c-0.25,-0.174 -0.546,-0.26 -0.89,-0.26c-0.293,0 -0.544,0.054 -0.752,0.164c-0.208,0.11 -0.38,0.258 -0.515,0.443c-0.135,0.186 -0.234,0.398 -0.299,0.636c-0.064,0.238 -0.096,0.485 -0.096,0.741c0,0.279 0.032,0.544 0.096,0.793c0.065,0.25 0.164,0.467 0.299,0.653c0.135,0.185 0.308,0.333 0.519,0.443c0.21,0.11 0.462,0.165 0.755,0.165c0.215,0 0.406,-0.036 0.574,-0.107c0.166,-0.071 0.311,-0.169 0.432,-0.295c0.121,-0.126 0.216,-0.276 0.285,-0.45c0.069,-0.174 0.11,-0.362 0.124,-0.563l0.653,0c-0.065,0.618 -0.278,1.099 -0.64,1.442c-0.361,0.344 -0.856,0.515 -1.483,0.515c-0.38,0 -0.712,-0.065 -0.996,-0.196c-0.284,-0.13 -0.519,-0.31 -0.707,-0.539c-0.188,-0.229 -0.329,-0.499 -0.422,-0.81c-0.094,-0.311 -0.141,-0.646 -0.141,-1.003c0,-0.357 0.05,-0.692 0.151,-1.006c0.101,-0.313 0.248,-0.587 0.443,-0.821c0.194,-0.233 0.437,-0.417 0.728,-0.553c0.29,-0.135 0.624,-0.202 0.999,-0.202c0.256,0 0.499,0.034 0.728,0.103c0.229,0.069 0.433,0.169 0.611,0.302c0.179,0.133 0.328,0.299 0.447,0.498c0.119,0.199 0.197,0.429 0.233,0.69l-0.652,0c-0.074,-0.348 -0.235,-0.609 -0.484,-0.783" style="fill:#fff;fill-rule:nonzero;"/><rect x="29.123" y="2.682" width="0.652" height="4.904" style="fill:#fff;"/><path d="M33.518,5.559l-0.817,-2.287l-0.014,0l-0.831,2.287l1.662,0Zm-0.453,-2.877l1.916,4.903l-0.721,0l-0.536,-1.476l-2.074,0l-0.549,1.476l-0.666,0l1.909,-4.903l0.721,0Z" style="fill:#fff;fill-rule:nonzero;"/><path d="M36.389,2.682l0,4.354l2.596,0l0,0.549l-3.248,0l0,-4.903l0.652,0Z" style="fill:#fff;fill-rule:nonzero;"/><path d="M27.039,28.659l0,2.508l1.347,0l0,1.345l1.173,0l0,-2.513l-1.352,0l0,-1.34l-1.168,0Z" style="fill:#1e1c1a;fill-rule:nonzero;"/><path d="M28.386,35.381l-1.346,0l0,1.167l2.519,0l0,-3.857l-1.173,0l0,2.69Z" style="fill:#1e1c1a;fill-rule:nonzero;"/><path d="M25.692,36.548l1.169,0l0,-1.346l1.346,0l0,-2.511l-1.168,0l0,1.348l-1.347,0l0,2.509Z" style="fill:#1e1c1a;fill-rule:nonzero;"/><path d="M25.692,29.999l0,3.86l1.169,0l0,-1.347l1.346,0l0,-1.166l-1.346,0l0,-1.347l-1.169,0Z" style="fill:#1e1c1a;fill-rule:nonzero;"/><rect x="24.342" y="21.952" width="1.171" height="5.2" style="fill:#1e1c1a;"/><path d="M24.163,36.552l0,-3.861l-2.516,0l0,1.168l1.349,0l0,2.693l1.167,0Z" style="fill:#1e1c1a;fill-rule:nonzero;"/><path d="M21.647,28.659l0,2.511l1.349,0l0,1.342l1.167,0l0,-2.509l-1.346,0l0,-1.344l-1.17,0Z" style="fill:#1e1c1a;fill-rule:nonzero;"/><rect x="18.952" y="31.349" width="1.17" height="5.204" style="fill:#1e1c1a;"/><path d="M18.952,31.17l1.169,0l0,-1.346l1.347,0l0,-2.511l-1.168,0l0,1.347l-1.348,0l0,2.51Z" style="fill:#1e1c1a;fill-rule:nonzero;"/><rect x="20.3" y="34.039" width="2.516" height="2.514" style="fill:#1e1c1a;"/><path d="M20.3,30.003l0,3.857l1.168,0l0,-1.348l1.349,0l0,-1.163l-1.349,0l0,-1.346l-1.168,0Z" style="fill:#1e1c1a;fill-rule:nonzero;"/></g></svg>